Patient4_TMGait_0pt6_02_left_36_EMG.mot
version=1
nRows=27
nColumns=33
inDegrees=no
endheader
time	1LAddLong	2LGlutMax	3LGlutMed	4LIliopsoas	5LSemiMemb	6LBicFemLong	7LRecFem	8LVastMed	9LVastLat	10LGasMed	11LTibAnt	12lTibPost	13LPeroneusLong	14LSol	15LExtDigLong	16LFlexDigLong	17RAddLong	18RGlutMax	19RGlutMed	20RIliopsoas	21RSemiMemb	22RBicFemLong	23RRecFem	24RVastMed	25RVastLat	26RGasMed	27RTibAnt	28RTibPost	29RPeroneusLong	30RSol	31RExtDigLong	32RFlexDigLong
44.332	0.004425	-0.55039	0.098877	-0.002899	-0.065308	0.38925	-0.3067	0.014496	0.060577	-0.093079	-0.026398	-0.064697	0.084534	0.16129	0.001373	-0.014801	0.04303	0.07431	-0.2565	0.17578	-0.13763	-0.06073	0.45578	-0.06073	-0.034332	0.003204	0.026245	-0.005646	-0.020752	0.056305	-0.003815	-0.026245
44.333	-0.00473	-0.66773	0.053558	-0.011292	0.050812	0.24048	-0.31967	0.014038	0.013733	-0.10223	-0.030975	-0.056915	0.075378	0.24384	0.005188	-0.024719	-0.024109	0.1004	-0.24826	0.28442	-0.14008	0.058289	0.4277	-0.067139	-0.029602	0.003357	0.050354	-0.007172	0.023956	0.011902	-0.00061	-0.03006
44.334	-0.011139	-0.89218	-0.11398	-0.00946	-0.059052	0.14694	-0.31494	0.031281	-0.023499	-0.083771	-0.019226	-0.053864	0.025635	0.24567	-0.006714	-0.020752	0.014801	0.023346	-0.22797	0.2919	-0.12543	0.028381	0.41565	0.033264	-0.029907	-0.000458	0.60013	-0.010986	0.048065	0.013733	-0.000153	-0.026093
44.335	-0.012817	-0.82642	-0.13977	0.011597	-0.090027	0.067749	-0.24246	0.032349	-0.039673	-0.1181	0.045013	-0.047913	-0.010223	0.19028	0.023956	-0.020142	0.02655	0.022125	-0.16281	0.20111	-0.05661	0.13611	0.43106	0.052185	-0.015564	-0.013123	1.1292	-0.007782	-0.036469	-0.007019	0.001221	-0.024414
44.336	-0.003815	-0.73349	-0.13229	0.014954	-0.060272	-0.16876	-0.29297	0.019836	-0.020599	-0.092773	0.018158	-0.037231	-0.011444	0.15793	0.036469	-0.026855	0.006866	0.018005	-0.04715	0.19134	0.001984	0.16693	0.35248	0.050659	0.018768	-0.009766	1.0931	-0.010071	-0.083466	-0.003052	-0.002441	-0.023651
44.337	0.009766	-0.60745	-0.09201	-0.007629	-0.004425	-0.50568	-0.26977	-0.006256	0.054626	-0.040894	-0.017853	-0.012665	0.094147	0.10681	0.087738	-0.025177	-0.005188	0.032043	0.12451	0.24139	0.049133	0.054169	0.35461	-0.008545	0.004425	-0.002899	0.35095	-0.008698	-0.042877	-0.073853	-0.005798	-0.023956
44.338	0.000763	-0.42969	0.057983	-0.01236	0.009918	-0.6868	-0.26459	-0.046692	0.11795	-0.075073	0.070648	-0.018158	0.15381	0.042267	0.12405	-0.014038	-0.040894	-0.010986	0.22644	0.32715	0.14069	-0.062561	0.34729	-0.007019	0.008545	0.004578	-0.71869	-0.005188	0.091553	-0.13077	-0.006104	-0.014038
44.339	0.00885	-0.33112	0.14343	-0.007324	0.002747	-0.616	-0.27695	-0.028381	0.1236	-0.027466	0.10071	-0.010986	0.1326	0.014191	0.051422	-0.015564	-0.058594	-0.003052	0.058594	0.3093	0.19302	-0.11032	0.36255	-0.04425	0.000458	0.015259	-1.2524	-0.006714	0.17364	-0.15945	-0.004883	-0.026703
44.34	0.006256	-0.37018	0.12589	-0.012512	0.007782	-0.18326	-0.27283	-0.027466	0.14374	0.062103	-0.15503	0.011749	0.053406	-0.034637	-0.052795	-0.015869	-0.011597	-0.019836	-0.059204	0.26657	0.14832	-0.066223	0.27664	-0.03479	0.019226	0.005035	-1.3199	-0.003204	0.17914	-0.065765	-0.001678	-0.028534
44.341	0.002289	-0.4985	0.095367	0.005646	-0.000153	0.177	-0.289	-0.009766	0.13428	0.11627	-0.29144	0.023041	0.087433	-0.054626	0.28885	-0.019073	0.005646	-0.029602	0.00061	0.071564	0.077667	-0.037231	0.16357	-0.014954	0.019379	0.010223	-1.2567	-0.007019	0.098114	-0.070801	0.000763	-0.018921
44.342	-0.014038	-0.48431	0.057983	0.013123	-0.016479	0.35172	-0.25467	0.00824	0.13123	0.13794	-0.13748	0.011902	0.038452	-0.02533	-0.11704	-0.001373	0.048981	-0.056763	-0.049744	0.062561	0.045166	-0.031891	0.16983	-0.057831	0.032806	0.006561	-0.83023	-0.001526	0.046387	-0.18875	0.000305	-0.029297
44.343	-0.013123	-0.45654	-0.062408	-0.003815	-0.04776	0.466	-0.3244	0.024109	0.22614	0.15442	-0.019226	0.000763	0.051727	-0.017395	0.070343	-0.012665	0.068665	-0.099335	0.011139	0.045013	0.025024	-0.02594	0.14984	-0.046234	0.036774	0.014648	-0.23956	-0.007477	0.14099	-0.1622	0.002899	-0.02594
44.344	-0.027313	-0.27573	-0.06012	0.001068	-0.049591	0.51834	-0.37567	0.023346	0.36133	0.093536	0.04303	0.035553	0.17868	-0.020142	0.25513	-0.001984	0.014038	-0.15076	0.06134	0.054016	-0.003052	-0.017548	0.16663	-0.079803	0.030518	0.014801	0.19714	-0.003967	0.13336	-0.16251	-0.001068	-0.028839
44.345	-0.032501	-0.17777	-0.029602	-0.017853	-0.11322	0.5159	-0.32562	0.016174	0.41	-0.08316	0.085754	0.003052	0.30167	0.03891	-0.17929	0.000305	-0.062408	-0.15686	0.062866	0.005951	-0.018921	0.033722	0.15564	-0.041962	0.010986	-0.010834	0.20111	-0.005188	-0.07782	-0.089111	-0.00351	-0.029144
44.346	-0.042877	-0.037994	0.042572	-0.008545	-0.18158	0.53879	-0.27283	0.010834	0.40115	-0.080719	0.054169	0.011139	0.39307	0.07309	-0.12558	0.014496	-0.10529	-0.1207	0.1532	-0.078278	-0.014648	0.14908	0.20325	0.01236	-0.00824	-0.007629	0.57968	-0.007172	-0.12421	-0.032196	0.002594	-0.029297
44.347	-0.041504	0.023499	0.063019	0.000305	-0.26672	0.47089	-0.31998	0.010834	0.36316	0.085297	0.051117	0.020294	0.22308	0.052643	-0.031128	0.015259	-0.16357	-0.17014	0.1442	-0.19119	-0.022278	0.17136	0.21515	0.027161	0.00885	0.005798	0.73837	-0.001068	0.005951	-0.10437	-0.001068	-0.021667
44.348	-0.032196	0.096893	0.020142	-0.018005	-0.31754	0.18463	-0.32181	0.004425	0.28244	0.13992	0.023041	0.01358	-0.16068	0.024567	-0.15991	-0.007477	-0.19501	-0.19775	0.098877	-0.20966	-0.018311	0.16541	0.16541	0.018311	0.007019	0.01297	0.49225	-0.005646	0.168	-0.20309	0.000305	-0.002594
44.349	0.005493	0.12894	-0.15656	-0.021362	-0.24674	-0.1326	-0.28885	-0.011444	0.11475	0.112	0.027924	0.007782	-0.40466	-0.041809	-0.2182	-0.002441	-0.19134	-0.21408	0.13367	-0.19043	-0.0354	0.10101	0.19623	0.013275	0.029297	0.005188	-0.8197	0.000763	0.28412	-0.066528	-0.002136	-0.019379
44.35	0.034027	0.13947	-0.31815	-0.006714	-0.069885	-0.049133	-0.215	-0.006409	-0.25986	0.091553	0.055847	0.011902	-0.17334	-0.15961	-0.21545	-0.001831	-0.15121	-0.20508	0.39063	-0.16007	0.006866	0.035706	0.18784	0.094299	0.033875	0.003052	-1.1328	-0.000916	0.30502	0.000763	-0.007324	-0.007324
44.351	0.022888	0.098877	-0.28946	-0.002899	-0.00946	-0.10559	-0.18539	-0.006561	-0.22919	0.046539	0.084381	-0.009003	0.057373	-0.2095	-0.17609	0.009918	-0.085907	-0.15106	0.76965	-0.17258	0.037689	-0.059204	0.20966	0.095215	0.045013	-0.00061	-0.49042	-0.005341	0.12375	-0.069885	-0.003357	-0.018005
44.352	0.019379	0.024414	0.27542	-0.000305	0.075378	0.037689	-0.27466	0.006409	-0.003967	-0.070496	0.103	-0.009155	0.019073	-0.1474	-0.036316	0.010986	-0.024872	-0.18601	0.64392	-0.087433	0.0354	0.13931	0.17502	0.11749	0.03479	0.000763	-0.18478	-0.000305	-0.002594	-0.079041	-0.00061	-0.006409
44.353	0.00946	-0.070343	0.44571	0.019836	0.080872	0.15656	-0.31815	-0.003204	0.1683	-0.081482	0.12528	-0.001373	0.14618	-0.11993	-0.004883	0.011444	0.020447	-0.28351	0.31525	0.072632	0.00946	0.19974	0.17471	0.14969	0.026245	0.006256	-0.35797	-0.000916	0.072479	0.023193	-0.004425	-0.004578
44.354	-0.008087	-0.091095	0.3064	0.030212	0.009155	0.1178	-0.33325	-0.003052	0.23712	-0.015717	0.038147	-0.005493	0.17899	-0.085449	-0.10117	0.000305	0.022736	-0.2623	0.47348	0.15488	-0.002899	0.18127	0.18494	0.10727	0.022125	0.00885	-0.36575	-0.001526	0.12314	0.095978	-0.001678	-0.010681
44.355	-0.025024	-0.12177	0.26733	0.009766	-0.069122	0.094299	-0.3569	-0.007935	0.16815	0.078888	0.017548	-0.02121	0.28442	-0.045166	-0.092468	-0.002136	0.080109	-0.22919	0.82184	-0.015717	0.022888	0.15625	0.24414	0.14908	0.018158	0.003204	-0.38269	-0.002594	0.049744	0.1767	-0.005646	-0.018921
44.356	-0.010681	-0.094299	0.15884	-0.007782	-0.098724	-0.053558	-0.32394	-0.015411	0.12299	0.12207	0.066681	-0.040436	0.21088	-0.084229	-0.010681	-0.012207	0.1297	-0.24094	0.66254	-0.15213	0.036316	0.11978	0.24658	0.17197	0.004425	0	0.19882	-0.00061	-0.12299	0.17532	-0.002594	-0.011597
44.357	0.011749	-0.036316	0.065155	0.007324	-0.066376	0.027008	-0.28839	-0.011749	0.099487	0.12528	0.073242	-0.008392	0.24506	-0.079346	0.006104	-0.006714	0.15015	-0.25345	0.16144	-0.1297	0.054321	0.093231	0.27206	0.15213	-0.007782	0.000763	0.36011	-0.001373	-0.13016	0.15091	-0.005493	-0.018005
44.358	0.020905	-0.034027	0.072937	0.007324	0.004883	0.02243	-0.23575	0.000916	0.092926	0.089417	-0.13107	-0.012207	0.2626	-0.03952	0.67886	-0.000458	0.18219	-0.26276	-0.0383	-0.09079	0.033112	0.041504	0.26794	0.14587	-0.046844	-0.003967	0.15488	0.001068	-0.092163	0.12054	0.000153	-0.016632
